solid OpenSCAD_Model
  facet normal 1 -0 0
    outer loop
      vertex 33.5 69.5 8
      vertex 33.5 100.5 4
      vertex 33.5 100.5 8
    endloop
  endfacet
  facet normal 1 0 0
    outer loop
      vertex 33.5 100.5 4
      vertex 33.5 69.5 8
      vertex 33.5 69.5 4
    endloop
  endfacet
  facet normal 0 0 1
    outer loop
      vertex 64.5 100.5 4
      vertex 62 98 4
      vertex 64.5 69.5 4
    endloop
  endfacet
  facet normal 0 0 1
    outer loop
      vertex 64.5 100.5 4
      vertex 36 98 4
      vertex 62 98 4
    endloop
  endfacet
  facet normal 0 0 1
    outer loop
      vertex 36 98 4
      vertex 33.5 100.5 4
      vertex 36 72 4
    endloop
  endfacet
  facet normal -0 0 1
    outer loop
      vertex 33.5 100.5 4
      vertex 36 98 4
      vertex 64.5 100.5 4
    endloop
  endfacet
  facet normal -0 0 1
    outer loop
      vertex 62 72 4
      vertex 64.5 69.5 4
      vertex 62 98 4
    endloop
  endfacet
  facet normal -0 0 1
    outer loop
      vertex 36 72 4
      vertex 64.5 69.5 4
      vertex 62 72 4
    endloop
  endfacet
  facet normal 0 0 1
    outer loop
      vertex 36 72 4
      vertex 33.5 69.5 4
      vertex 64.5 69.5 4
    endloop
  endfacet
  facet normal 0 0 1
    outer loop
      vertex 33.5 69.5 4
      vertex 36 72 4
      vertex 33.5 100.5 4
    endloop
  endfacet
  facet normal -1 0 0
    outer loop
      vertex 64.5 69.5 4
      vertex 64.5 100.5 8
      vertex 64.5 100.5 4
    endloop
  endfacet
  facet normal -1 -0 0
    outer loop
      vertex 64.5 100.5 8
      vertex 64.5 69.5 4
      vertex 64.5 69.5 8
    endloop
  endfacet
  facet normal 0 0 -1
    outer loop
      vertex 31.5 67.5 0
      vertex 66.5 102.5 0
      vertex 66.5 67.5 0
    endloop
  endfacet
  facet normal -0 0 -1
    outer loop
      vertex 66.5 102.5 0
      vertex 31.5 67.5 0
      vertex 31.5 102.5 0
    endloop
  endfacet
  facet normal 0 1 0
    outer loop
      vertex 64.5 69.5 8
      vertex 59 69.5 5
      vertex 59 69.5 8
    endloop
  endfacet
  facet normal 0 1 0
    outer loop
      vertex 59 69.5 5
      vertex 64.5 69.5 4
      vertex 49 69.5 5
    endloop
  endfacet
  facet normal 0 1 -0
    outer loop
      vertex 64.5 69.5 4
      vertex 59 69.5 5
      vertex 64.5 69.5 8
    endloop
  endfacet
  facet normal 0 1 -0
    outer loop
      vertex 49 69.5 5
      vertex 33.5 69.5 8
      vertex 49 69.5 8
    endloop
  endfacet
  facet normal 0 1 0
    outer loop
      vertex 49 69.5 5
      vertex 33.5 69.5 4
      vertex 33.5 69.5 8
    endloop
  endfacet
  facet normal 0 1 0
    outer loop
      vertex 33.5 69.5 4
      vertex 49 69.5 5
      vertex 64.5 69.5 4
    endloop
  endfacet
  facet normal 0 -1 0
    outer loop
      vertex 33.5 100.5 4
      vertex 64.5 100.5 8
      vertex 33.5 100.5 8
    endloop
  endfacet
  facet normal 0 -1 -0
    outer loop
      vertex 64.5 100.5 8
      vertex 33.5 100.5 4
      vertex 64.5 100.5 4
    endloop
  endfacet
  facet normal 1 -0 0
    outer loop
      vertex 36 72 4
      vertex 36 98 3
      vertex 36 98 4
    endloop
  endfacet
  facet normal 1 0 0
    outer loop
      vertex 36 98 3
      vertex 36 72 4
      vertex 36 72 3
    endloop
  endfacet
  facet normal -1 0 0
    outer loop
      vertex 62 72 3
      vertex 62 98 4
      vertex 62 98 3
    endloop
  endfacet
  facet normal -1 -0 0
    outer loop
      vertex 62 98 4
      vertex 62 72 3
      vertex 62 72 4
    endloop
  endfacet
  facet normal 0 -1 0
    outer loop
      vertex 36 98 3
      vertex 62 98 4
      vertex 36 98 4
    endloop
  endfacet
  facet normal 0 -1 -0
    outer loop
      vertex 62 98 4
      vertex 36 98 3
      vertex 62 98 3
    endloop
  endfacet
  facet normal 0 1 -0
    outer loop
      vertex 62 72 3
      vertex 36 72 4
      vertex 62 72 4
    endloop
  endfacet
  facet normal 0 1 0
    outer loop
      vertex 36 72 4
      vertex 62 72 3
      vertex 36 72 3
    endloop
  endfacet
  facet normal -1 0 0
    outer loop
      vertex 31.5 67.5 0
      vertex 31.5 102.5 8
      vertex 31.5 102.5 0
    endloop
  endfacet
  facet normal -1 -0 0
    outer loop
      vertex 31.5 102.5 8
      vertex 31.5 67.5 0
      vertex 31.5 67.5 8
    endloop
  endfacet
  facet normal 0 0 1
    outer loop
      vertex 66.5 102.5 8
      vertex 64.5 100.5 8
      vertex 66.5 67.5 8
    endloop
  endfacet
  facet normal 0 0 1
    outer loop
      vertex 66.5 102.5 8
      vertex 33.5 100.5 8
      vertex 64.5 100.5 8
    endloop
  endfacet
  facet normal 0 0 1
    outer loop
      vertex 33.5 100.5 8
      vertex 31.5 102.5 8
      vertex 33.5 69.5 8
    endloop
  endfacet
  facet normal -0 0 1
    outer loop
      vertex 31.5 102.5 8
      vertex 33.5 100.5 8
      vertex 66.5 102.5 8
    endloop
  endfacet
  facet normal -0 0 1
    outer loop
      vertex 64.5 69.5 8
      vertex 66.5 67.5 8
      vertex 64.5 100.5 8
    endloop
  endfacet
  facet normal 0 0 1
    outer loop
      vertex 59 67.5 8
      vertex 64.5 69.5 8
      vertex 59 69.5 8
    endloop
  endfacet
  facet normal 0 0 1
    outer loop
      vertex 64.5 69.5 8
      vertex 59 67.5 8
      vertex 66.5 67.5 8
    endloop
  endfacet
  facet normal -0 0 1
    outer loop
      vertex 33.5 69.5 8
      vertex 49 67.5 8
      vertex 49 69.5 8
    endloop
  endfacet
  facet normal 0 0 1
    outer loop
      vertex 33.5 69.5 8
      vertex 31.5 67.5 8
      vertex 49 67.5 8
    endloop
  endfacet
  facet normal 0 0 1
    outer loop
      vertex 31.5 67.5 8
      vertex 33.5 69.5 8
      vertex 31.5 102.5 8
    endloop
  endfacet
  facet normal 1 -0 0
    outer loop
      vertex 66.5 67.5 8
      vertex 66.5 102.5 0
      vertex 66.5 102.5 8
    endloop
  endfacet
  facet normal 1 0 0
    outer loop
      vertex 66.5 102.5 0
      vertex 66.5 67.5 8
      vertex 66.5 67.5 0
    endloop
  endfacet
  facet normal 0 1 -0
    outer loop
      vertex 66.5 102.5 0
      vertex 31.5 102.5 8
      vertex 66.5 102.5 8
    endloop
  endfacet
  facet normal 0 1 0
    outer loop
      vertex 31.5 102.5 8
      vertex 66.5 102.5 0
      vertex 31.5 102.5 0
    endloop
  endfacet
  facet normal 0 -1 0
    outer loop
      vertex 31.5 67.5 8
      vertex 49 67.5 5
      vertex 49 67.5 8
    endloop
  endfacet
  facet normal 0 -1 0
    outer loop
      vertex 66.5 67.5 0
      vertex 49 67.5 5
      vertex 31.5 67.5 0
    endloop
  endfacet
  facet normal 0 -1 0
    outer loop
      vertex 31.5 67.5 0
      vertex 49 67.5 5
      vertex 31.5 67.5 8
    endloop
  endfacet
  facet normal 0 -1 0
    outer loop
      vertex 59 67.5 5
      vertex 66.5 67.5 8
      vertex 59 67.5 8
    endloop
  endfacet
  facet normal 0 -1 0
    outer loop
      vertex 59 67.5 5
      vertex 66.5 67.5 0
      vertex 66.5 67.5 8
    endloop
  endfacet
  facet normal 0 -1 0
    outer loop
      vertex 49 67.5 5
      vertex 66.5 67.5 0
      vertex 59 67.5 5
    endloop
  endfacet
  facet normal 1 -0 0
    outer loop
      vertex 49 67.5 8
      vertex 49 69.5 5
      vertex 49 69.5 8
    endloop
  endfacet
  facet normal 1 0 0
    outer loop
      vertex 49 69.5 5
      vertex 49 67.5 8
      vertex 49 67.5 5
    endloop
  endfacet
  facet normal -1 0 0
    outer loop
      vertex 59 67.5 5
      vertex 59 69.5 8
      vertex 59 69.5 5
    endloop
  endfacet
  facet normal -1 -0 0
    outer loop
      vertex 59 69.5 8
      vertex 59 67.5 5
      vertex 59 67.5 8
    endloop
  endfacet
  facet normal -0 0 1
    outer loop
      vertex 49 69.5 5
      vertex 59 67.5 5
      vertex 59 69.5 5
    endloop
  endfacet
  facet normal 0 0 1
    outer loop
      vertex 59 67.5 5
      vertex 49 69.5 5
      vertex 49 67.5 5
    endloop
  endfacet
  facet normal -1 0 0
    outer loop
      vertex 37.75 73.75 3
      vertex 37.75 96.25 4
      vertex 37.75 96.25 3
    endloop
  endfacet
  facet normal -1 -0 0
    outer loop
      vertex 37.75 96.25 4
      vertex 37.75 73.75 3
      vertex 37.75 73.75 4
    endloop
  endfacet
  facet normal -0 0 1
    outer loop
      vertex 38.75 85.5 4
      vertex 48.5 84.5 4
      vertex 48.5 85.5 4
    endloop
  endfacet
  facet normal 0 0 1
    outer loop
      vertex 48.5 84.5 4
      vertex 38.75 85.5 4
      vertex 38.75 84.5 4
    endloop
  endfacet
  facet normal -0 0 1
    outer loop
      vertex 49.5 85.5 4
      vertex 59.25 84.5 4
      vertex 59.25 85.5 4
    endloop
  endfacet
  facet normal 0 0 1
    outer loop
      vertex 59.25 84.5 4
      vertex 49.5 85.5 4
      vertex 49.5 84.5 4
    endloop
  endfacet
  facet normal 0 0 1
    outer loop
      vertex 59.25 85.5 4
      vertex 60.25 96.25 4
      vertex 59.25 95.25 4
    endloop
  endfacet
  facet normal 0 0 1
    outer loop
      vertex 60.25 96.25 4
      vertex 49.5 95.25 4
      vertex 59.25 95.25 4
    endloop
  endfacet
  facet normal 0 0 1
    outer loop
      vertex 48.5 85.5 4
      vertex 49.5 85.5 4
      vertex 49.5 95.25 4
    endloop
  endfacet
  facet normal 0 0 1
    outer loop
      vertex 49.5 85.5 4
      vertex 48.5 85.5 4
      vertex 49.5 84.5 4
    endloop
  endfacet
  facet normal 0 0 1
    outer loop
      vertex 48.5 85.5 4
      vertex 49.5 95.25 4
      vertex 48.5 95.25 4
    endloop
  endfacet
  facet normal 0 0 1
    outer loop
      vertex 60.25 96.25 4
      vertex 48.5 95.25 4
      vertex 49.5 95.25 4
    endloop
  endfacet
  facet normal -0 0 1
    outer loop
      vertex 37.75 96.25 4
      vertex 48.5 95.25 4
      vertex 60.25 96.25 4
    endloop
  endfacet
  facet normal 0 0 1
    outer loop
      vertex 37.75 96.25 4
      vertex 38.75 85.5 4
      vertex 38.75 95.25 4
    endloop
  endfacet
  facet normal 0 0 1
    outer loop
      vertex 38.75 85.5 4
      vertex 37.75 96.25 4
      vertex 38.75 84.5 4
    endloop
  endfacet
  facet normal 0 0 1
    outer loop
      vertex 37.75 73.75 4
      vertex 38.75 84.5 4
      vertex 37.75 96.25 4
    endloop
  endfacet
  facet normal 0 0 1
    outer loop
      vertex 48.5 95.25 4
      vertex 37.75 96.25 4
      vertex 38.75 95.25 4
    endloop
  endfacet
  facet normal 0 0 1
    outer loop
      vertex 60.25 96.25 4
      vertex 59.25 85.5 4
      vertex 60.25 73.75 4
    endloop
  endfacet
  facet normal -0 0 1
    outer loop
      vertex 59.25 84.5 4
      vertex 60.25 73.75 4
      vertex 59.25 85.5 4
    endloop
  endfacet
  facet normal -0 0 1
    outer loop
      vertex 59.25 74.75 4
      vertex 60.25 73.75 4
      vertex 59.25 84.5 4
    endloop
  endfacet
  facet normal -0 0 1
    outer loop
      vertex 49.5 74.75 4
      vertex 60.25 73.75 4
      vertex 59.25 74.75 4
    endloop
  endfacet
  facet normal 0 0 1
    outer loop
      vertex 48.5 84.5 4
      vertex 49.5 84.5 4
      vertex 48.5 85.5 4
    endloop
  endfacet
  facet normal 0 0 1
    outer loop
      vertex 49.5 84.5 4
      vertex 48.5 84.5 4
      vertex 49.5 74.75 4
    endloop
  endfacet
  facet normal 0 0 1
    outer loop
      vertex 48.5 74.75 4
      vertex 49.5 74.75 4
      vertex 48.5 84.5 4
    endloop
  endfacet
  facet normal -0 0 1
    outer loop
      vertex 48.5 74.75 4
      vertex 60.25 73.75 4
      vertex 49.5 74.75 4
    endloop
  endfacet
  facet normal 0 0 1
    outer loop
      vertex 37.75 73.75 4
      vertex 48.5 74.75 4
      vertex 38.75 74.75 4
    endloop
  endfacet
  facet normal 0 0 1
    outer loop
      vertex 48.5 74.75 4
      vertex 37.75 73.75 4
      vertex 60.25 73.75 4
    endloop
  endfacet
  facet normal 0 0 1
    outer loop
      vertex 38.75 84.5 4
      vertex 37.75 73.75 4
      vertex 38.75 74.75 4
    endloop
  endfacet
  facet normal 1 -0 0
    outer loop
      vertex 60.25 73.75 4
      vertex 60.25 96.25 3
      vertex 60.25 96.25 4
    endloop
  endfacet
  facet normal 1 0 0
    outer loop
      vertex 60.25 96.25 3
      vertex 60.25 73.75 4
      vertex 60.25 73.75 3
    endloop
  endfacet
  facet normal 0 1 -0
    outer loop
      vertex 60.25 96.25 3
      vertex 37.75 96.25 4
      vertex 60.25 96.25 4
    endloop
  endfacet
  facet normal 0 1 0
    outer loop
      vertex 37.75 96.25 4
      vertex 60.25 96.25 3
      vertex 37.75 96.25 3
    endloop
  endfacet
  facet normal 0 -1 0
    outer loop
      vertex 37.75 73.75 3
      vertex 60.25 73.75 4
      vertex 37.75 73.75 4
    endloop
  endfacet
  facet normal 0 -1 -0
    outer loop
      vertex 60.25 73.75 4
      vertex 37.75 73.75 3
      vertex 60.25 73.75 3
    endloop
  endfacet
  facet normal 1 -0 0
    outer loop
      vertex 38.75 74.75 4
      vertex 38.75 84.5 3
      vertex 38.75 84.5 4
    endloop
  endfacet
  facet normal 1 0 0
    outer loop
      vertex 38.75 84.5 3
      vertex 38.75 74.75 4
      vertex 38.75 74.75 3
    endloop
  endfacet
  facet normal 1 -0 0
    outer loop
      vertex 38.75 85.5 4
      vertex 38.75 95.25 3
      vertex 38.75 95.25 4
    endloop
  endfacet
  facet normal 1 0 0
    outer loop
      vertex 38.75 95.25 3
      vertex 38.75 85.5 4
      vertex 38.75 85.5 3
    endloop
  endfacet
  facet normal -1 0 0
    outer loop
      vertex 59.25 74.75 3
      vertex 59.25 84.5 4
      vertex 59.25 84.5 3
    endloop
  endfacet
  facet normal -1 -0 0
    outer loop
      vertex 59.25 84.5 4
      vertex 59.25 74.75 3
      vertex 59.25 74.75 4
    endloop
  endfacet
  facet normal -1 0 0
    outer loop
      vertex 59.25 85.5 3
      vertex 59.25 95.25 4
      vertex 59.25 95.25 3
    endloop
  endfacet
  facet normal -1 -0 0
    outer loop
      vertex 59.25 95.25 4
      vertex 59.25 85.5 3
      vertex 59.25 85.5 4
    endloop
  endfacet
  facet normal 0 -1 0
    outer loop
      vertex 38.75 95.25 3
      vertex 48.5 95.25 4
      vertex 38.75 95.25 4
    endloop
  endfacet
  facet normal 0 -1 -0
    outer loop
      vertex 48.5 95.25 4
      vertex 38.75 95.25 3
      vertex 48.5 95.25 3
    endloop
  endfacet
  facet normal 0 -1 0
    outer loop
      vertex 49.5 95.25 3
      vertex 59.25 95.25 4
      vertex 49.5 95.25 4
    endloop
  endfacet
  facet normal 0 -1 -0
    outer loop
      vertex 59.25 95.25 4
      vertex 49.5 95.25 3
      vertex 59.25 95.25 3
    endloop
  endfacet
  facet normal 0 1 -0
    outer loop
      vertex 48.5 74.75 3
      vertex 38.75 74.75 4
      vertex 48.5 74.75 4
    endloop
  endfacet
  facet normal 0 1 0
    outer loop
      vertex 38.75 74.75 4
      vertex 48.5 74.75 3
      vertex 38.75 74.75 3
    endloop
  endfacet
  facet normal 0 1 -0
    outer loop
      vertex 59.25 74.75 3
      vertex 49.5 74.75 4
      vertex 59.25 74.75 4
    endloop
  endfacet
  facet normal 0 1 0
    outer loop
      vertex 49.5 74.75 4
      vertex 59.25 74.75 3
      vertex 49.5 74.75 3
    endloop
  endfacet
  facet normal -1 0 0
    outer loop
      vertex 48.5 74.75 3
      vertex 48.5 84.5 4
      vertex 48.5 84.5 3
    endloop
  endfacet
  facet normal -1 -0 0
    outer loop
      vertex 48.5 84.5 4
      vertex 48.5 74.75 3
      vertex 48.5 74.75 4
    endloop
  endfacet
  facet normal -1 0 0
    outer loop
      vertex 48.5 85.5 3
      vertex 48.5 95.25 4
      vertex 48.5 95.25 3
    endloop
  endfacet
  facet normal -1 -0 0
    outer loop
      vertex 48.5 95.25 4
      vertex 48.5 85.5 3
      vertex 48.5 85.5 4
    endloop
  endfacet
  facet normal 1 -0 0
    outer loop
      vertex 49.5 74.75 4
      vertex 49.5 84.5 3
      vertex 49.5 84.5 4
    endloop
  endfacet
  facet normal 1 0 0
    outer loop
      vertex 49.5 84.5 3
      vertex 49.5 74.75 4
      vertex 49.5 74.75 3
    endloop
  endfacet
  facet normal 1 -0 0
    outer loop
      vertex 49.5 85.5 4
      vertex 49.5 95.25 3
      vertex 49.5 95.25 4
    endloop
  endfacet
  facet normal 1 0 0
    outer loop
      vertex 49.5 95.25 3
      vertex 49.5 85.5 4
      vertex 49.5 85.5 3
    endloop
  endfacet
  facet normal 0 1 -0
    outer loop
      vertex 48.5 85.5 3
      vertex 38.75 85.5 4
      vertex 48.5 85.5 4
    endloop
  endfacet
  facet normal 0 1 0
    outer loop
      vertex 38.75 85.5 4
      vertex 48.5 85.5 3
      vertex 38.75 85.5 3
    endloop
  endfacet
  facet normal 0 1 -0
    outer loop
      vertex 59.25 85.5 3
      vertex 49.5 85.5 4
      vertex 59.25 85.5 4
    endloop
  endfacet
  facet normal 0 1 0
    outer loop
      vertex 49.5 85.5 4
      vertex 59.25 85.5 3
      vertex 49.5 85.5 3
    endloop
  endfacet
  facet normal 0 -1 0
    outer loop
      vertex 38.75 84.5 3
      vertex 48.5 84.5 4
      vertex 38.75 84.5 4
    endloop
  endfacet
  facet normal 0 -1 -0
    outer loop
      vertex 48.5 84.5 4
      vertex 38.75 84.5 3
      vertex 48.5 84.5 3
    endloop
  endfacet
  facet normal 0 -1 0
    outer loop
      vertex 49.5 84.5 3
      vertex 59.25 84.5 4
      vertex 49.5 84.5 4
    endloop
  endfacet
  facet normal 0 -1 -0
    outer loop
      vertex 59.25 84.5 4
      vertex 49.5 84.5 3
      vertex 59.25 84.5 3
    endloop
  endfacet
  facet normal -1 0 0
    outer loop
      vertex 39.5 75.5 3
      vertex 39.5 84 4
      vertex 39.5 84 3
    endloop
  endfacet
  facet normal -1 -0 0
    outer loop
      vertex 39.5 84 4
      vertex 39.5 75.5 3
      vertex 39.5 75.5 4
    endloop
  endfacet
  facet normal 1 -0 0
    outer loop
      vertex 48 75.5 4
      vertex 48 84 3
      vertex 48 84 4
    endloop
  endfacet
  facet normal 1 0 0
    outer loop
      vertex 48 84 3
      vertex 48 75.5 4
      vertex 48 75.5 3
    endloop
  endfacet
  facet normal 0 1 -0
    outer loop
      vertex 48 84 3
      vertex 39.5 84 4
      vertex 48 84 4
    endloop
  endfacet
  facet normal 0 1 0
    outer loop
      vertex 39.5 84 4
      vertex 48 84 3
      vertex 39.5 84 3
    endloop
  endfacet
  facet normal 0 -1 0
    outer loop
      vertex 39.5 75.5 3
      vertex 48 75.5 4
      vertex 39.5 75.5 4
    endloop
  endfacet
  facet normal 0 -1 -0
    outer loop
      vertex 48 75.5 4
      vertex 39.5 75.5 3
      vertex 48 75.5 3
    endloop
  endfacet
  facet normal -1 0 0
    outer loop
      vertex 39.5 86 3
      vertex 39.5 94.5 4
      vertex 39.5 94.5 3
    endloop
  endfacet
  facet normal -1 -0 0
    outer loop
      vertex 39.5 94.5 4
      vertex 39.5 86 3
      vertex 39.5 86 4
    endloop
  endfacet
  facet normal 1 -0 0
    outer loop
      vertex 48 86 4
      vertex 48 94.5 3
      vertex 48 94.5 4
    endloop
  endfacet
  facet normal 1 0 0
    outer loop
      vertex 48 94.5 3
      vertex 48 86 4
      vertex 48 86 3
    endloop
  endfacet
  facet normal 0 1 -0
    outer loop
      vertex 48 94.5 3
      vertex 39.5 94.5 4
      vertex 48 94.5 4
    endloop
  endfacet
  facet normal 0 1 0
    outer loop
      vertex 39.5 94.5 4
      vertex 48 94.5 3
      vertex 39.5 94.5 3
    endloop
  endfacet
  facet normal 0 -1 0
    outer loop
      vertex 39.5 86 3
      vertex 48 86 4
      vertex 39.5 86 4
    endloop
  endfacet
  facet normal 0 -1 -0
    outer loop
      vertex 48 86 4
      vertex 39.5 86 3
      vertex 48 86 3
    endloop
  endfacet
  facet normal -1 0 0
    outer loop
      vertex 50 75.5 3
      vertex 50 84 4
      vertex 50 84 3
    endloop
  endfacet
  facet normal -1 -0 0
    outer loop
      vertex 50 84 4
      vertex 50 75.5 3
      vertex 50 75.5 4
    endloop
  endfacet
  facet normal 1 -0 0
    outer loop
      vertex 58.5 75.5 4
      vertex 58.5 84 3
      vertex 58.5 84 4
    endloop
  endfacet
  facet normal 1 0 0
    outer loop
      vertex 58.5 84 3
      vertex 58.5 75.5 4
      vertex 58.5 75.5 3
    endloop
  endfacet
  facet normal 0 -1 0
    outer loop
      vertex 50 75.5 3
      vertex 58.5 75.5 4
      vertex 50 75.5 4
    endloop
  endfacet
  facet normal 0 -1 -0
    outer loop
      vertex 58.5 75.5 4
      vertex 50 75.5 3
      vertex 58.5 75.5 3
    endloop
  endfacet
  facet normal 0 1 -0
    outer loop
      vertex 58.5 84 3
      vertex 50 84 4
      vertex 58.5 84 4
    endloop
  endfacet
  facet normal 0 1 0
    outer loop
      vertex 50 84 4
      vertex 58.5 84 3
      vertex 50 84 3
    endloop
  endfacet
  facet normal -1 0 0
    outer loop
      vertex 50 86 3
      vertex 50 94.5 4
      vertex 50 94.5 3
    endloop
  endfacet
  facet normal -1 -0 0
    outer loop
      vertex 50 94.5 4
      vertex 50 86 3
      vertex 50 86 4
    endloop
  endfacet
  facet normal 1 -0 0
    outer loop
      vertex 58.5 86 4
      vertex 58.5 94.5 3
      vertex 58.5 94.5 4
    endloop
  endfacet
  facet normal 1 0 0
    outer loop
      vertex 58.5 94.5 3
      vertex 58.5 86 4
      vertex 58.5 86 3
    endloop
  endfacet
  facet normal 0 1 -0
    outer loop
      vertex 58.5 94.5 3
      vertex 50 94.5 4
      vertex 58.5 94.5 4
    endloop
  endfacet
  facet normal 0 1 0
    outer loop
      vertex 50 94.5 4
      vertex 58.5 94.5 3
      vertex 50 94.5 3
    endloop
  endfacet
  facet normal 0 -1 0
    outer loop
      vertex 50 86 3
      vertex 58.5 86 4
      vertex 50 86 4
    endloop
  endfacet
  facet normal 0 -1 -0
    outer loop
      vertex 58.5 86 4
      vertex 50 86 3
      vertex 58.5 86 3
    endloop
  endfacet
  facet normal 0 0 1
    outer loop
      vertex 62 98 3
      vertex 60.25 96.25 3
      vertex 62 72 3
    endloop
  endfacet
  facet normal 0 0 1
    outer loop
      vertex 62 98 3
      vertex 37.75 96.25 3
      vertex 60.25 96.25 3
    endloop
  endfacet
  facet normal 0 0 1
    outer loop
      vertex 37.75 96.25 3
      vertex 36 98 3
      vertex 37.75 73.75 3
    endloop
  endfacet
  facet normal -0 0 1
    outer loop
      vertex 36 98 3
      vertex 37.75 96.25 3
      vertex 62 98 3
    endloop
  endfacet
  facet normal -0 0 1
    outer loop
      vertex 60.25 73.75 3
      vertex 62 72 3
      vertex 60.25 96.25 3
    endloop
  endfacet
  facet normal -0 0 1
    outer loop
      vertex 37.75 73.75 3
      vertex 62 72 3
      vertex 60.25 73.75 3
    endloop
  endfacet
  facet normal 0 0 1
    outer loop
      vertex 37.75 73.75 3
      vertex 36 72 3
      vertex 62 72 3
    endloop
  endfacet
  facet normal 0 0 1
    outer loop
      vertex 36 72 3
      vertex 37.75 73.75 3
      vertex 36 98 3
    endloop
  endfacet
  facet normal 0 0 1
    outer loop
      vertex 48 75.5 3
      vertex 48.5 84.5 3
      vertex 48 84 3
    endloop
  endfacet
  facet normal 0 0 1
    outer loop
      vertex 48.5 84.5 3
      vertex 39.5 84 3
      vertex 48 84 3
    endloop
  endfacet
  facet normal 0 0 1
    outer loop
      vertex 39.5 84 3
      vertex 38.75 84.5 3
      vertex 39.5 75.5 3
    endloop
  endfacet
  facet normal -0 0 1
    outer loop
      vertex 38.75 84.5 3
      vertex 39.5 84 3
      vertex 48.5 84.5 3
    endloop
  endfacet
  facet normal 0 0 1
    outer loop
      vertex 48.5 84.5 3
      vertex 48 75.5 3
      vertex 48.5 74.75 3
    endloop
  endfacet
  facet normal -0 0 1
    outer loop
      vertex 39.5 75.5 3
      vertex 48.5 74.75 3
      vertex 48 75.5 3
    endloop
  endfacet
  facet normal 0 0 1
    outer loop
      vertex 39.5 75.5 3
      vertex 38.75 74.75 3
      vertex 48.5 74.75 3
    endloop
  endfacet
  facet normal 0 0 1
    outer loop
      vertex 38.75 74.75 3
      vertex 39.5 75.5 3
      vertex 38.75 84.5 3
    endloop
  endfacet
  facet normal 0 0 1
    outer loop
      vertex 48.5 95.25 3
      vertex 48 94.5 3
      vertex 48.5 85.5 3
    endloop
  endfacet
  facet normal 0 0 1
    outer loop
      vertex 48.5 95.25 3
      vertex 39.5 94.5 3
      vertex 48 94.5 3
    endloop
  endfacet
  facet normal 0 0 1
    outer loop
      vertex 38.75 85.5 3
      vertex 39.5 94.5 3
      vertex 38.75 95.25 3
    endloop
  endfacet
  facet normal -0 0 1
    outer loop
      vertex 38.75 95.25 3
      vertex 39.5 94.5 3
      vertex 48.5 95.25 3
    endloop
  endfacet
  facet normal -0 0 1
    outer loop
      vertex 48 86 3
      vertex 48.5 85.5 3
      vertex 48 94.5 3
    endloop
  endfacet
  facet normal -0 0 1
    outer loop
      vertex 39.5 86 3
      vertex 48.5 85.5 3
      vertex 48 86 3
    endloop
  endfacet
  facet normal 0 0 1
    outer loop
      vertex 39.5 86 3
      vertex 38.75 85.5 3
      vertex 48.5 85.5 3
    endloop
  endfacet
  facet normal 0 0 1
    outer loop
      vertex 39.5 94.5 3
      vertex 38.75 85.5 3
      vertex 39.5 86 3
    endloop
  endfacet
  facet normal 0 0 1
    outer loop
      vertex 58.5 75.5 3
      vertex 59.25 84.5 3
      vertex 58.5 84 3
    endloop
  endfacet
  facet normal -0 0 1
    outer loop
      vertex 49.5 84.5 3
      vertex 58.5 84 3
      vertex 59.25 84.5 3
    endloop
  endfacet
  facet normal 0 0 1
    outer loop
      vertex 50 84 3
      vertex 49.5 84.5 3
      vertex 50 75.5 3
    endloop
  endfacet
  facet normal 0 0 1
    outer loop
      vertex 58.5 84 3
      vertex 49.5 84.5 3
      vertex 50 84 3
    endloop
  endfacet
  facet normal 0 0 1
    outer loop
      vertex 59.25 84.5 3
      vertex 58.5 75.5 3
      vertex 59.25 74.75 3
    endloop
  endfacet
  facet normal 0 0 1
    outer loop
      vertex 49.5 74.75 3
      vertex 58.5 75.5 3
      vertex 50 75.5 3
    endloop
  endfacet
  facet normal 0 0 1
    outer loop
      vertex 58.5 75.5 3
      vertex 49.5 74.75 3
      vertex 59.25 74.75 3
    endloop
  endfacet
  facet normal 0 0 1
    outer loop
      vertex 49.5 74.75 3
      vertex 50 75.5 3
      vertex 49.5 84.5 3
    endloop
  endfacet
  facet normal 0 0 1
    outer loop
      vertex 59.25 95.25 3
      vertex 58.5 94.5 3
      vertex 59.25 85.5 3
    endloop
  endfacet
  facet normal -0 0 1
    outer loop
      vertex 49.5 95.25 3
      vertex 58.5 94.5 3
      vertex 59.25 95.25 3
    endloop
  endfacet
  facet normal 0 0 1
    outer loop
      vertex 49.5 85.5 3
      vertex 50 94.5 3
      vertex 49.5 95.25 3
    endloop
  endfacet
  facet normal 0 0 1
    outer loop
      vertex 58.5 94.5 3
      vertex 49.5 95.25 3
      vertex 50 94.5 3
    endloop
  endfacet
  facet normal -0 0 1
    outer loop
      vertex 58.5 86 3
      vertex 59.25 85.5 3
      vertex 58.5 94.5 3
    endloop
  endfacet
  facet normal 0 0 1
    outer loop
      vertex 49.5 85.5 3
      vertex 58.5 86 3
      vertex 50 86 3
    endloop
  endfacet
  facet normal 0 0 1
    outer loop
      vertex 58.5 86 3
      vertex 49.5 85.5 3
      vertex 59.25 85.5 3
    endloop
  endfacet
  facet normal 0 0 1
    outer loop
      vertex 50 94.5 3
      vertex 49.5 85.5 3
      vertex 50 86 3
    endloop
  endfacet
  facet normal -0 0 1
    outer loop
      vertex 39.5 94.5 4
      vertex 48 86 4
      vertex 48 94.5 4
    endloop
  endfacet
  facet normal 0 0 1
    outer loop
      vertex 48 86 4
      vertex 39.5 94.5 4
      vertex 39.5 86 4
    endloop
  endfacet
  facet normal -0 0 1
    outer loop
      vertex 39.5 84 4
      vertex 48 75.5 4
      vertex 48 84 4
    endloop
  endfacet
  facet normal 0 0 1
    outer loop
      vertex 48 75.5 4
      vertex 39.5 84 4
      vertex 39.5 75.5 4
    endloop
  endfacet
  facet normal -0 0 1
    outer loop
      vertex 50 84 4
      vertex 58.5 75.5 4
      vertex 58.5 84 4
    endloop
  endfacet
  facet normal 0 0 1
    outer loop
      vertex 58.5 75.5 4
      vertex 50 84 4
      vertex 50 75.5 4
    endloop
  endfacet
  facet normal -0 0 1
    outer loop
      vertex 50 94.5 4
      vertex 58.5 86 4
      vertex 58.5 94.5 4
    endloop
  endfacet
  facet normal 0 0 1
    outer loop
      vertex 58.5 86 4
      vertex 50 94.5 4
      vertex 50 86 4
    endloop
  endfacet
endsolid OpenSCAD_Model
